<svg width="1200" height="360" viewBox="0 0 1200 360" fill="none" xmlns="http://www.w3.org/2000/svg">
  <rect width="1200" height="360" fill="white"/>
  <g transform="translate(70,38)">
    <path d="M152 238C118 204 76 190 56 154C42 129 42 91 56 66C73 37 110 28 142 31C176 34 200 52 221 73C234 86 248 103 261 121C232 130 214 151 206 173C196 198 193 223 196 274C180 255 166 245 152 238Z" fill="#2E6448"/>
    <path d="M256 121C270 100 286 81 305 65C327 47 354 35 387 33C420 31 455 41 473 69C488 92 490 128 476 153C455 190 412 205 379 239C364 254 351 267 336 286C339 231 336 199 324 174C315 152 293 131 256 121Z" fill="#6E9A4E"/>
    <path d="M150 149C181 150 211 162 234 178C247 187 257 199 267 211C277 198 288 187 300 177C323 160 354 149 386 148C357 190 312 221 268 286C225 226 178 189 150 149Z" fill="#5D944E"/>
    <path d="M257 211C258 173 257 138 257 104C257 90 257 74 257 58C257 45 258 32 260 18C263 28 267 39 270 51C273 65 274 79 274 92C275 126 274 173 274 211C274 247 274 276 274 306C270 296 267 286 264 275C259 255 257 236 257 211Z" fill="#4A7C3F"/>
    <rect x="221" y="94" width="16" height="75" fill="#D1A83D"/>
    <rect x="243" y="68" width="16" height="101" fill="#D9B64E"/>
    <rect x="265" y="49" width="16" height="120" fill="#C99B2F"/>
    <circle cx="273" cy="38" r="10" fill="#D9B64E"/>
    <path d="M188 160C209 169 225 185 236 206C222 197 207 190 190 185C173 180 157 178 140 178C153 168 171 162 188 160Z" fill="#254A36" opacity="0.55"/>
    <path d="M344 160C362 162 379 169 391 179C373 179 356 181 340 186C323 191 308 198 295 206C305 185 322 169 344 160Z" fill="#406A39" opacity="0.5"/>
  </g>
  <g transform="translate(470,96)">
    <text x="0" y="88" fill="#355F46" font-family="Libre Baskerville, Georgia, serif" font-size="92" letter-spacing="2">ANTRIOM</text>
    <text x="98" y="152" fill="#C5A044" font-family="Libre Baskerville, Georgia, serif" font-size="50" letter-spacing="10">ADVISORY</text>
  </g>
</svg>
